<svg width="10" height="10" viewBox="0 0 10 10" fill="none" xmlns="http://www.w3.org/2000/svg">
<path fill-rule="evenodd" clip-rule="evenodd" d="M5.37842 0.658752C5.34507 0.586476 5.29172 0.525265 5.22467 0.482361C5.15762 0.439457 5.07969 0.416656 5.00009 0.416656C4.92049 0.416656 4.84256 0.439457 4.77551 0.482361C4.70846 0.525265 4.65511 0.586476 4.62176 0.658752L3.42592 3.25042L0.592174 3.58667C0.513112 3.596 0.438378 3.62779 0.376819 3.67828C0.31526 3.72876 0.269452 3.79582 0.244817 3.87152C0.220181 3.94723 0.217749 4.02841 0.237809 4.10545C0.257869 4.18249 0.29958 4.25218 0.358007 4.30625L2.45384 6.24375L1.89759 9.04375C1.88214 9.12181 1.88936 9.20265 1.9184 9.27673C1.94744 9.35081 1.99708 9.41502 2.06146 9.46178C2.12584 9.50854 2.20226 9.53589 2.28168 9.5406C2.36111 9.5453 2.44023 9.52717 2.50967 9.48834L5.00009 8.09417L7.49051 9.48834C7.56 9.52733 7.63921 9.54558 7.71876 9.54093C7.79831 9.53627 7.87486 9.5089 7.93932 9.46207C8.00379 9.41523 8.05348 9.35089 8.08249 9.27667C8.1115 9.20246 8.11862 9.12148 8.10301 9.04334L7.54676 6.24417L9.64217 4.30625C9.7006 4.25218 9.74231 4.18249 9.76237 4.10545C9.78243 4.02841 9.78 3.94723 9.75536 3.87152C9.73073 3.79582 9.68492 3.72876 9.62336 3.67828C9.5618 3.62779 9.48707 3.596 9.40801 3.58667L6.57384 3.25L5.37842 0.658752Z" fill="#E28542"/>
</svg>
