<svg width="182" height="23" viewBox="0 0 182 23" fill="none" xmlns="http://www.w3.org/2000/svg">
<path d="M4.38754 22L0.397539 22.3L0.457539 21.1L2.73754 20.5L3.03754 11.32L2.73754 2.5L0.427539 1.9L0.577539 0.699999L4.23754 0.999999L8.34754 0.699999L8.28754 1.9L5.88754 2.5L5.58754 11.32L5.88754 20.62L13.2075 20.05L13.9575 16.36L15.0075 16.45L15.1575 20.35L15.3675 22L11.7375 21.7L4.38754 22ZM22.0831 12.1L22.3231 20.86L30.9931 20.65L31.8931 16.66L32.9431 16.93L33.0631 20.65L33.2731 22.3L29.6431 22H20.8231L16.7131 22.3L16.7731 21.25L19.1731 20.5L19.4731 11.29L19.1731 2.5L16.7431 1.78L16.8931 0.729998L20.6731 0.999999H29.3131L32.2231 0.699999L31.9531 2.17L31.8931 6.1L30.8131 6.34L30.0331 2.35L22.3231 2.11L22.0831 10.54L27.9331 10.36L28.5031 7.51L29.7031 7.9L29.4031 11.32L29.7031 14.95L28.5031 14.77L27.9331 11.8L22.0831 12.1ZM47.8922 13.24L48.1922 20.5L51.1022 21.1L50.9522 22.3L46.6922 22L42.5822 22.3L42.6422 21.1L45.1322 20.5L45.3422 12.82L45.1922 2.5L42.7322 1.9L42.8822 0.699999L46.5422 0.999999L50.5622 0.669999L53.0222 0.849999L55.4522 1.63L57.8222 3.43L58.5722 6.52L58.0322 9.85L56.2022 11.95L50.9222 13.6L47.8922 13.24ZM48.1022 2.35L47.9222 11.92L50.5622 12.25L54.6122 10.54L55.4822 7.15L54.8522 4.39L52.4822 2.08L48.1022 2.35ZM65.7254 3.04L66.2954 0.399999L67.7654 0.159999L71.9654 11.26L75.8354 20.5L78.3554 21.1L78.2054 22.3L74.5454 22L69.9854 22.3L70.0454 21.1L72.5054 20.5L70.4054 14.8L66.7754 14.68L63.3254 14.8L61.3754 20.5L63.6554 21.1L63.5054 22.3L59.8454 22L57.0854 22.3L57.1454 21.1L59.4854 20.5L63.0254 11.29L65.7254 3.04ZM66.5954 4.09L63.8654 13.15L66.7754 13.27L69.8054 13.15L67.8854 8.35L66.6554 4.09H66.5954ZM84.1032 12.46L84.4032 20.5L87.3132 21.1L87.1632 22.3L82.9032 22L78.7932 22.3L78.8532 21.1L81.3432 20.5L81.5532 12.82L81.4032 2.5L78.9432 1.9L79.0932 0.699999L82.7532 0.999999L86.7732 0.669999L89.2332 0.849999L91.6632 1.63L94.0332 3.43L94.7832 6.52L94.2432 9.85L92.4132 11.17L90.4332 11.74L94.7232 20.83H97.0632L97.2432 21.82L93.7332 22.54L91.7832 20.95L88.0632 12.4L87.1332 12.64L84.1032 12.46ZM84.3132 2.35L84.1332 11.14L86.7732 11.29L90.8232 9.76L91.6932 7.15L91.0632 4.39L88.6932 2.08L84.3132 2.35ZM113.603 0.699999L113.303 2.17L113.273 6.1L112.193 6.34L111.413 2.35L103.973 2.11L103.673 10.24L108.683 10.09L109.283 7.21L110.483 7.66L110.183 11.08L110.483 14.71L109.283 14.47L108.713 11.5L103.673 11.8L103.973 20.53L106.763 21.1L106.613 22.15L102.323 22L98.3635 22.3L98.4235 21.25L100.823 20.5L101.123 11.29L100.823 2.5L98.3935 1.78L98.5435 0.729998L102.323 0.999999H110.693L113.603 0.699999ZM133.48 4.36L133.36 13.75L132.73 18.85L129.85 21.97L127.54 22.51H124.06L119.95 21.64L117.73 18.49L117.16 14.05L117.4 5.23L117.25 2.5L114.85 1.9L115 0.699999L118.66 0.999999L122.77 0.699999L122.71 1.9L120.7 2.5L120.37 5.35L120.13 12.22L120.34 16.99L121.69 19.69L125.44 21.1L128.86 20.56L131.05 17.56L131.71 12.85L131.53 4.6L131.32 2.38L129.4 1.9L129.55 0.699999L132.61 0.999999L135.82 0.699999L135.76 1.9L133.69 2.38L133.48 4.36ZM139.693 17.86L140.863 2.5L138.403 1.9L138.553 0.849999L142.213 0.999999H144.163V1.6L148.843 13.27L150.193 17.2H150.253L151.453 13.48L156.193 1.6V0.999999H157.993L162.103 0.849999L162.043 1.9L159.553 2.5L160.873 17.5L161.413 20.56L163.453 21.1L163.303 22.15L159.643 22L155.533 22.15L155.593 21.1L157.753 20.59L157.843 17.8L157.573 13.3L156.733 4.3H156.583L155.413 7.96L150.523 20.62L151.003 22L149.563 22.6L148.993 21.19L143.413 7.87L142.243 4.3H142.123L141.493 13.99L141.373 17.92L141.433 20.53L143.623 21.13L143.473 22.18L140.323 22L137.113 22.15L137.173 21.1L139.243 20.5L139.693 17.86ZM170.442 12.1L170.682 20.86L179.352 20.65L180.252 16.66L181.302 16.93L181.422 20.65L181.632 22.3L178.002 22H169.182L165.072 22.3L165.132 21.25L167.532 20.5L167.832 11.29L167.532 2.5L165.102 1.78L165.252 0.729998L169.032 0.999999H177.672L180.582 0.699999L180.312 2.17L180.252 6.1L179.172 6.34L178.392 2.35L170.682 2.11L170.442 10.54L176.292 10.36L176.862 7.51L178.062 7.9L177.762 11.32L178.062 14.95L176.862 14.77L176.292 11.8L170.442 12.1Z" fill="#4F4D63"/>
</svg>
