<svg width="30" height="25" viewBox="0 0 30 25" fill="none" xmlns="http://www.w3.org/2000/svg">
<path d="M5.45392 24.8758V23.2211C5.45392 22.5867 5.09368 22.1731 4.47622 22.1731C4.16755 22.1731 3.8331 22.2834 3.60153 22.642C3.42153 22.3386 3.16431 22.1731 2.77841 22.1731C2.52106 22.1731 2.26396 22.2558 2.05806 22.5592V22.2283H1.51782V24.8758H2.05806V23.4141C2.05806 22.9454 2.28962 22.7246 2.64985 22.7246C3.00985 22.7246 3.19009 22.9729 3.19009 23.4141V24.8758H3.73032V23.4141C3.73032 22.9454 3.98743 22.7246 4.32188 22.7246C4.68212 22.7246 4.86212 22.9729 4.86212 23.4141V24.8758H5.45392ZM13.4544 22.2283H12.5799V21.4285H12.0396V22.2283H11.5508V22.7522H12.0395V23.9657C12.0395 24.5725 12.2711 24.9309 12.8885 24.9309C13.1201 24.9309 13.3772 24.8483 13.5574 24.738L13.403 24.2415C13.2486 24.3518 13.0686 24.3794 12.94 24.3794C12.6827 24.3794 12.5799 24.214 12.5799 23.9381V22.7522H13.4544V22.2283ZM18.0336 22.173C17.725 22.173 17.5192 22.3386 17.3905 22.5592V22.2283H16.8503V24.8758H17.3905V23.3866C17.3905 22.9454 17.5705 22.6971 17.905 22.6971C18.0079 22.6971 18.1365 22.7248 18.2394 22.7523L18.3938 22.2008C18.2909 22.1731 18.1365 22.1731 18.0336 22.1731M11.1135 22.449C10.8561 22.2559 10.496 22.1733 10.1101 22.1733C9.49278 22.1733 9.08122 22.5042 9.08122 23.0282C9.08122 23.4695 9.38989 23.7176 9.93013 23.8004L10.1874 23.828C10.4704 23.8831 10.6247 23.9658 10.6247 24.1038C10.6247 24.2968 10.4189 24.4347 10.0587 24.4347C9.69845 24.4347 9.41556 24.2968 9.23544 24.1589L8.97821 24.6001C9.26122 24.8207 9.64712 24.931 10.0329 24.931C10.7533 24.931 11.1649 24.5726 11.1649 24.0761C11.1649 23.6073 10.8305 23.3591 10.3159 23.2764L10.0587 23.2488C9.82712 23.2211 9.64712 23.1661 9.64712 23.0006C9.64712 22.8076 9.82712 22.6973 10.1101 22.6973C10.4189 22.6973 10.7276 22.8351 10.8819 22.9179L11.1135 22.449ZM25.4684 22.1733C25.1596 22.1733 24.9538 22.3387 24.8251 22.5593V22.2284H24.2849V24.8759H24.8251V23.3867C24.8251 22.9455 25.0052 22.6973 25.3396 22.6973C25.4426 22.6973 25.5713 22.7249 25.6742 22.7524L25.8285 22.2009C25.7256 22.1733 25.5713 22.1733 25.4684 22.1733ZM18.5739 23.5522C18.5739 24.3519 19.0883 24.931 19.8859 24.931C20.246 24.931 20.5033 24.8484 20.7605 24.6278L20.5033 24.1589C20.2975 24.3244 20.0917 24.4071 19.8601 24.4071C19.4228 24.4071 19.1141 24.0762 19.1141 23.5522C19.1141 23.0558 19.4228 22.7248 19.8601 22.6973C20.0917 22.6973 20.2975 22.7799 20.5033 22.9455L20.7605 22.4767C20.5033 22.2559 20.246 22.1733 19.8859 22.1733C19.0883 22.1733 18.5739 22.7524 18.5739 23.5522ZM23.5647 23.5522V22.2284H23.0244V22.5593C22.8443 22.3112 22.5871 22.1733 22.2526 22.1733C21.5581 22.1733 21.0178 22.7524 21.0178 23.5522C21.0178 24.3519 21.5581 24.931 22.2526 24.931C22.6127 24.931 22.8701 24.7932 23.0244 24.545V24.8759H23.5647V23.5522ZM21.5837 23.5522C21.5837 23.0833 21.8667 22.6973 22.3297 22.6973C22.7671 22.6973 23.0759 23.0558 23.0759 23.5522C23.0759 24.021 22.7671 24.4071 22.3297 24.4071C21.8667 24.3794 21.5837 24.021 21.5837 23.5522ZM15.1267 22.1733C14.4063 22.1733 13.8918 22.7248 13.8918 23.5522C13.8918 24.3795 14.4062 24.931 15.1524 24.931C15.5125 24.931 15.8727 24.8207 16.1557 24.5726L15.8984 24.1589C15.6926 24.3244 15.4354 24.4347 15.1781 24.4347C14.8437 24.4347 14.5092 24.2692 14.432 23.8003H16.2586V23.5798C16.2844 22.7248 15.8214 22.1733 15.1267 22.1733ZM15.1266 22.6696C15.4609 22.6696 15.6926 22.8903 15.7439 23.304H14.4577C14.5091 22.9455 14.7407 22.6696 15.1266 22.6696ZM28.5295 23.5522V21.1804H27.9893V22.5593C27.8092 22.3112 27.552 22.1733 27.2175 22.1733C26.5229 22.1733 25.9827 22.7524 25.9827 23.5522C25.9827 24.3519 26.5229 24.931 27.2175 24.931C27.5777 24.931 27.835 24.7932 27.9893 24.545V24.8759H28.5295V23.5522ZM26.5487 23.5522C26.5487 23.0833 26.8316 22.6973 27.2947 22.6973C27.7321 22.6973 28.0408 23.0558 28.0408 23.5522C28.0408 24.021 27.7321 24.4071 27.2947 24.4071C26.8316 24.3794 26.5487 24.021 26.5487 23.5522ZM8.48931 23.5522V22.2284H7.94907V22.5593C7.76896 22.3112 7.51173 22.1733 7.17728 22.1733C6.48271 22.1733 5.94247 22.7524 5.94247 23.5522C5.94247 24.3519 6.48271 24.931 7.17728 24.931C7.53751 24.931 7.79474 24.7932 7.94907 24.545V24.8759H8.48931V23.5522ZM6.48271 23.5522C6.48271 23.0833 6.76571 22.6973 7.22872 22.6973C7.66606 22.6973 7.97485 23.0558 7.97485 23.5522C7.97485 24.021 7.66606 24.4071 7.22872 24.4071C6.76571 24.3794 6.48271 24.021 6.48271 23.5522Z" fill="black"/>
<path d="M10.9333 2.12347H19.0369V17.7329H10.9333V2.12347Z" fill="#FF5F00"/>
<path d="M11.4479 9.92827C11.4479 6.75678 12.8371 3.94372 14.9722 2.12349C13.4031 0.799749 11.4223 0 9.26133 0C4.14176 0 0 4.44008 0 9.92827C0 15.4165 4.14176 19.8565 9.26121 19.8565C11.4221 19.8565 13.403 19.0568 14.9722 17.7329C12.8371 15.9403 11.4479 13.0997 11.4479 9.92827Z" fill="#EB001B"/>
<path d="M29.9703 9.92827C29.9703 15.4163 25.8285 19.8565 20.7091 19.8565C18.5481 19.8565 16.5673 19.0568 14.998 17.7329C17.159 15.9128 18.5225 13.0997 18.5225 9.92827C18.5225 6.75678 17.1332 3.94372 14.998 2.12349C16.5672 0.799749 18.5481 0 20.7091 0C25.8285 0 29.9703 4.46771 29.9703 9.92827Z" fill="#F79E1B"/>
</svg>
