<svg width="28" height="18" viewBox="0 0 28 18" fill="none" xmlns="http://www.w3.org/2000/svg">
<path d="M14.4809 5.73135C14.465 8.2288 15.6034 9.62239 16.461 10.451C17.3422 11.3012 17.6381 11.8464 17.6346 12.6067C17.6281 13.7702 16.9318 14.2837 16.2803 14.3037C15.1435 14.3386 14.4826 13.6952 13.9571 13.2085L13.5476 17.0078C14.0748 17.4895 15.051 17.9095 16.0632 17.928C18.4394 17.928 19.994 15.6023 20.0024 11.9964C20.0117 7.4201 16.81 7.1668 16.8318 5.1213C16.8394 4.50106 17.1379 3.83918 17.7919 3.6709C18.1157 3.58588 19.0094 3.52082 20.0226 4.44598L20.4203 0.770077C19.8754 0.376678 19.1751 -2.09808e-05 18.3031 -2.09808e-05C16.0666 -2.09808e-05 14.4936 2.35733 14.4809 5.73135ZM24.2417 0.316607C23.8078 0.316607 23.4421 0.818436 23.2789 1.58853L19.8847 17.658H22.2591L22.7316 15.0688H25.6331L25.9072 17.658H28L26.1738 0.316607H24.2417ZM24.5738 5.00116L25.2591 11.513H23.3824L24.5738 5.00116ZM11.6021 0.316822L9.73044 17.6578H11.9931L13.8638 0.316389L11.6021 0.316822ZM8.25486 0.316822L5.8998 12.1198L4.94714 2.08386C4.83536 0.963522 4.39392 0.316607 3.9037 0.316607H0.0539219L0 0.820171C0.790344 1.16022 1.68831 1.70868 2.23234 2.29552C2.56528 2.654 2.66022 2.96738 2.76959 3.81923L4.57395 17.658H6.965L10.6308 0.316607L8.25486 0.316822Z" fill="url(#paint0_linear_143_303)"/>
<defs>
<linearGradient id="paint0_linear_143_303" x1="1287.27" y1="53.8915" x2="1389.93" y2="-1783.07" gradientUnits="userSpaceOnUse">
<stop stop-color="#222357"/>
<stop offset="1" stop-color="#254AA5"/>
</linearGradient>
</defs>
</svg>
