<svg width="25" height="25" viewBox="0 0 25 25" fill="none" xmlns="http://www.w3.org/2000/svg">
<path d="M21.2078 1.94593C19.8471 0.631194 17.3873 0.0675354 14.2405 0.0675354H5.10772C4.79636 0.0674947 4.4952 0.161634 4.25842 0.33302C4.02163 0.504406 3.86476 0.741789 3.81602 1.00247L0.0132861 21.4468C-0.0622998 21.8499 0.305962 22.215 0.787993 22.215H6.42627L7.84229 14.6015L7.79835 14.8399C7.89922 14.3017 8.44219 13.9048 9.08516 13.9048H11.7645C17.0279 13.9048 21.1493 12.0925 22.3532 6.85007C22.389 6.69502 22.4199 6.54411 22.4467 6.39668C22.2947 6.32846 22.2947 6.32846 22.4467 6.39668C22.8052 4.45901 22.4442 3.14005 21.2078 1.94593Z" fill="#27346A"/>
<path d="M9.99971 5.69866C10.1538 5.63635 10.3224 5.6041 10.4932 5.60429H17.6531C18.501 5.60429 19.2918 5.65106 20.0145 5.74965C20.2167 5.77701 20.4178 5.80964 20.6177 5.8475C20.9009 5.90049 21.1809 5.96533 21.4565 6.04179C21.8118 6.14237 22.1427 6.25951 22.4468 6.39667C22.8052 4.45826 22.4442 3.14005 21.2078 1.94593C19.8463 0.631194 17.3873 0.0675354 14.2405 0.0675354H5.10694C4.46387 0.0675354 3.9168 0.46439 3.81602 1.00247L0.0132867 21.446C-0.0622993 21.8498 0.305962 22.2144 0.787212 22.2144H6.42628L9.36407 6.42217C9.39298 6.26695 9.46593 6.12001 9.57666 5.99398C9.68738 5.86795 9.83256 5.76661 9.99971 5.69866Z" fill="#27346A"/>
<path d="M22.3533 6.85009C21.1494 12.0918 17.0281 13.9048 11.7645 13.9048H9.08445C8.44148 13.9048 7.89841 14.3017 7.79851 14.8399L6.03689 24.3064C5.97107 24.6592 6.29294 24.9789 6.71403 24.9789H11.467C11.7392 24.9788 12.0025 24.8964 12.2095 24.7465C12.4165 24.5966 12.5536 24.389 12.5962 24.161L12.6425 23.9557L13.5383 19.1431L13.596 18.8772C13.6385 18.6492 13.7756 18.4416 13.9826 18.2917C14.1895 18.1418 14.4528 18.0594 14.7251 18.0593H15.4364C20.0406 18.0593 23.6458 16.4737 24.6993 11.8879C25.139 9.97153 24.9115 8.37153 23.7482 7.24769C23.3954 6.90729 22.9572 6.62617 22.4468 6.3967C22.4191 6.54488 22.3891 6.69504 22.3533 6.85009Z" fill="#2790C3"/>
<path d="M21.1867 5.97086C20.999 5.9244 20.8095 5.88326 20.6185 5.84751C20.4186 5.81025 20.2174 5.77784 20.0153 5.75033C19.2918 5.65107 18.5016 5.60422 17.653 5.60422H10.4939C10.3231 5.60398 10.1544 5.63649 10.0004 5.69933C9.83307 5.76704 9.6877 5.86831 9.57692 5.99438C9.46614 6.12046 9.3933 6.26752 9.3647 6.42284L7.84302 14.6015L7.79907 14.8399C7.89917 14.3017 8.44214 13.9048 9.0852 13.9048H11.7653C17.0288 13.9048 21.15 12.0925 22.354 6.85008C22.3898 6.69503 22.4199 6.54478 22.4475 6.39669C22.1427 6.26037 21.8126 6.1423 21.4573 6.04246C21.3676 6.01726 21.2774 5.99339 21.1868 5.97086" fill="#1F264F"/>
</svg>
