<svg width="26" height="26" viewBox="0 0 26 26" fill="none" xmlns="http://www.w3.org/2000/svg">
<path d="M22.75 13C22.75 13.2155 22.6644 13.4222 22.512 13.5745C22.3597 13.7269 22.153 13.8125 21.9375 13.8125H13.8125V21.9375C13.8125 22.153 13.7269 22.3597 13.5745 22.512C13.4222 22.6644 13.2155 22.75 13 22.75C12.7845 22.75 12.5778 22.6644 12.4255 22.512C12.2731 22.3597 12.1875 22.153 12.1875 21.9375V13.8125H4.0625C3.84701 13.8125 3.64035 13.7269 3.48798 13.5745C3.3356 13.4222 3.25 13.2155 3.25 13C3.25 12.7845 3.3356 12.5778 3.48798 12.4255C3.64035 12.2731 3.84701 12.1875 4.0625 12.1875H12.1875V4.0625C12.1875 3.84701 12.2731 3.64035 12.4255 3.48798C12.5778 3.3356 12.7845 3.25 13 3.25C13.2155 3.25 13.4222 3.3356 13.5745 3.48798C13.7269 3.64035 13.8125 3.84701 13.8125 4.0625V12.1875H21.9375C22.153 12.1875 22.3597 12.2731 22.512 12.4255C22.6644 12.5778 22.75 12.7845 22.75 13Z" fill="#877B7A"/>
</svg>
