<svg width="40" height="40" viewBox="0 0 40 40" fill="none" xmlns="http://www.w3.org/2000/svg">
<path d="M36.6667 28.2001V33.2001C36.6686 33.6642 36.5735 34.1237 36.3875 34.549C36.2016 34.9743 35.9288 35.3561 35.5868 35.6699C35.2448 35.9836 34.841 36.2226 34.4012 36.3713C33.9615 36.52 33.4956 36.5752 33.0333 36.5334C27.9047 35.9761 22.9783 34.2237 18.65 31.4167C14.623 28.8579 11.2089 25.4437 8.65 21.4167C5.8333 17.0688 4.08041 12.1184 3.53333 6.96675C3.49168 6.50586 3.54646 6.04135 3.69417 5.60279C3.84188 5.16423 4.07929 4.76123 4.39128 4.41945C4.70327 4.07767 5.08301 3.8046 5.50632 3.61762C5.92963 3.43064 6.38723 3.33385 6.85 3.33341H11.85C12.6588 3.32545 13.443 3.61188 14.0563 4.1393C14.6696 4.66672 15.0701 5.39916 15.1833 6.20008C15.3944 7.80019 15.7858 9.37129 16.35 10.8834C16.5742 11.48 16.6228 12.1283 16.4898 12.7515C16.3569 13.3748 16.0481 13.9469 15.6 14.4001L13.4833 16.5167C15.8559 20.6893 19.3108 24.1442 23.4833 26.5167L25.6 24.4001C26.0531 23.952 26.6253 23.6432 27.2485 23.5102C27.8718 23.3773 28.5201 23.4258 29.1167 23.6501C30.6288 24.2143 32.1999 24.6057 33.8 24.8167C34.6096 24.931 35.349 25.3388 35.8776 25.9626C36.4061 26.5864 36.6869 27.3827 36.6667 28.2001Z" stroke="#4F4D63" stroke-width="2" stroke-linecap="round" stroke-linejoin="round"/>
</svg>
