<svg width="35" height="35" viewBox="0 0 35 35" fill="none" xmlns="http://www.w3.org/2000/svg">
<path d="M31.7237 6.01562H3.27637C1.46402 6.01562 -0.00488281 7.48453 -0.00488281 9.29688V25.7031C-0.00488281 27.5155 1.46402 28.9844 3.27637 28.9844H31.7237C33.5361 28.9844 35.005 27.5155 35.005 25.7031V9.29688C35.005 7.48453 33.5361 6.01562 31.7237 6.01562ZM3.27637 8.20312H31.7237C32.3275 8.20312 32.8175 8.69313 32.8175 9.29688V11.4844H2.18262V9.29688C2.18262 8.69313 2.67313 8.20312 3.27637 8.20312ZM31.7237 26.7969H3.27637C2.67262 26.7969 2.18262 26.3069 2.18262 25.7031V15.8594H32.8175V25.7031C32.8175 26.3069 32.3269 26.7969 31.7237 26.7969Z" fill="#877B7A"/>
</svg>
